<svg id="visual" viewBox="0 0 960 540" width="960" height="540" xmlns="http://www.w3.org/2000/svg" xmlns:xlink="http://www.w3.org/1999/xlink" version="1.1"><path d="M0 462L22.8 460.7C45.7 459.3 91.3 456.7 137 458.3C182.7 460 228.3 466 274 465C319.7 464 365.3 456 411.2 456.3C457 456.7 503 465.3 548.8 465.5C594.7 465.7 640.3 457.3 686 455.5C731.7 453.7 777.3 458.3 823 457.8C868.7 457.3 914.3 451.7 937.2 448.8L960 446L960 541L937.2 541C914.3 541 868.7 541 823 541C777.3 541 731.7 541 686 541C640.3 541 594.7 541 548.8 541C503 541 457 541 411.2 541C365.3 541 319.7 541 274 541C228.3 541 182.7 541 137 541C91.3 541 45.7 541 22.8 541L0 541Z" fill="#0f1e37"></path><path d="M0 494L22.8 492.7C45.7 491.3 91.3 488.7 137 485.8C182.7 483 228.3 480 274 479.2C319.7 478.3 365.3 479.7 411.2 480.5C457 481.3 503 481.7 548.8 483.8C594.7 486 640.3 490 686 489.7C731.7 489.3 777.3 484.7 823 482.8C868.7 481 914.3 482 937.2 482.5L960 483L960 541L937.2 541C914.3 541 868.7 541 823 541C777.3 541 731.7 541 686 541C640.3 541 594.7 541 548.8 541C503 541 457 541 411.2 541C365.3 541 319.7 541 274 541C228.3 541 182.7 541 137 541C91.3 541 45.7 541 22.8 541L0 541Z" fill="#12264a"></path><path d="M0 510L22.8 511.3C45.7 512.7 91.3 515.3 137 514.3C182.7 513.3 228.3 508.7 274 505.8C319.7 503 365.3 502 411.2 503.8C457 505.7 503 510.3 548.8 512.7C594.7 515 640.3 515 686 514C731.7 513 777.3 511 823 510.3C868.7 509.7 914.3 510.3 937.2 510.7L960 511L960 541L937.2 541C914.3 541 868.7 541 823 541C777.3 541 731.7 541 686 541C640.3 541 594.7 541 548.8 541C503 541 457 541 411.2 541C365.3 541 319.7 541 274 541C228.3 541 182.7 541 137 541C91.3 541 45.7 541 22.8 541L0 541Z" fill="#2e4777"></path></svg>