<svg id="visual" viewBox="0 0 540 960" width="540" height="960" xmlns="http://www.w3.org/2000/svg" xmlns:xlink="http://www.w3.org/1999/xlink" version="1.1"><path d="M0 822L12.8 819.8C25.7 817.7 51.3 813.3 77 816.3C102.7 819.3 128.3 829.7 154 827.7C179.7 825.7 205.3 811.3 231.2 811.8C257 812.3 283 827.7 308.8 828C334.7 828.3 360.3 813.7 386 810.3C411.7 807 437.3 815 463 814C488.7 813 514.3 803 527.2 798L540 793L540 961L527.2 961C514.3 961 488.7 961 463 961C437.3 961 411.7 961 386 961C360.3 961 334.7 961 308.8 961C283 961 257 961 231.2 961C205.3 961 179.7 961 154 961C128.3 961 102.7 961 77 961C51.3 961 25.7 961 12.8 961L0 961Z" fill="#0f1e37"></path><path d="M0 880L12.8 877.5C25.7 875 51.3 870 77 864.8C102.7 859.7 128.3 854.3 154 852.8C179.7 851.3 205.3 853.7 231.2 855C257 856.3 283 856.7 308.8 860.3C334.7 864 360.3 871 386 870.5C411.7 870 437.3 862 463 858.8C488.7 855.7 514.3 857.3 527.2 858.2L540 859L540 961L527.2 961C514.3 961 488.7 961 463 961C437.3 961 411.7 961 386 961C360.3 961 334.7 961 308.8 961C283 961 257 961 231.2 961C205.3 961 179.7 961 154 961C128.3 961 102.7 961 77 961C51.3 961 25.7 961 12.8 961L0 961Z" fill="#12264a"></path><path d="M0 908L12.8 910.2C25.7 912.3 51.3 916.7 77 914.8C102.7 913 128.3 905 154 900.2C179.7 895.3 205.3 893.7 231.2 896.8C257 900 283 908 308.8 912C334.7 916 360.3 916 386 914.3C411.7 912.7 437.3 909.3 463 908.2C488.7 907 514.3 908 527.2 908.5L540 909L540 961L527.2 961C514.3 961 488.7 961 463 961C437.3 961 411.7 961 386 961C360.3 961 334.7 961 308.8 961C283 961 257 961 231.2 961C205.3 961 179.7 961 154 961C128.3 961 102.7 961 77 961C51.3 961 25.7 961 12.8 961L0 961Z" fill="#2e4777"></path></svg>