<svg id="visual" viewBox="0 0 960 540" width="960" height="540" xmlns="http://www.w3.org/2000/svg" xmlns:xlink="http://www.w3.org/1999/xlink" version="1.1"><path d="M0 115L22.8 116.8C45.7 118.7 91.3 122.3 137 119.7C182.7 117 228.3 108 274 109.7C319.7 111.3 365.3 123.7 411.2 123.3C457 123 503 110 548.8 109.7C594.7 109.3 640.3 121.7 686 124.3C731.7 127 777.3 120 823 120.8C868.7 121.7 914.3 130.3 937.2 134.7L960 139L960 0L937.2 0C914.3 0 868.7 0 823 0C777.3 0 731.7 0 686 0C640.3 0 594.7 0 548.8 0C503 0 457 0 411.2 0C365.3 0 319.7 0 274 0C228.3 0 182.7 0 137 0C91.3 0 45.7 0 22.8 0L0 0Z" fill="#0f1e37"></path><path d="M0 66L22.8 68.2C45.7 70.3 91.3 74.7 137 79C182.7 83.3 228.3 87.7 274 88.8C319.7 90 365.3 88 411.2 86.8C457 85.7 503 85.3 548.8 82.2C594.7 79 640.3 73 686 73.3C731.7 73.7 777.3 80.3 823 83C868.7 85.7 914.3 84.3 937.2 83.7L960 83L960 0L937.2 0C914.3 0 868.7 0 823 0C777.3 0 731.7 0 686 0C640.3 0 594.7 0 548.8 0C503 0 457 0 411.2 0C365.3 0 319.7 0 274 0C228.3 0 182.7 0 137 0C91.3 0 45.7 0 22.8 0L0 0Z" fill="#12264a"></path><path d="M0 42L22.8 40.2C45.7 38.3 91.3 34.7 137 36.2C182.7 37.7 228.3 44.3 274 48.3C319.7 52.3 365.3 53.7 411.2 51C457 48.3 503 41.7 548.8 38.3C594.7 35 640.3 35 686 36.5C731.7 38 777.3 41 823 42C868.7 43 914.3 42 937.2 41.5L960 41L960 0L937.2 0C914.3 0 868.7 0 823 0C777.3 0 731.7 0 686 0C640.3 0 594.7 0 548.8 0C503 0 457 0 411.2 0C365.3 0 319.7 0 274 0C228.3 0 182.7 0 137 0C91.3 0 45.7 0 22.8 0L0 0Z" fill="#2e4777"></path></svg>