<svg id="visual" viewBox="0 0 540 960" width="540" height="960" xmlns="http://www.w3.org/2000/svg" xmlns:xlink="http://www.w3.org/1999/xlink" version="1.1"><path d="M0 890L12.8 889C25.7 888 51.3 886 77 887.7C102.7 889.3 128.3 894.7 154 893.7C179.7 892.7 205.3 885.3 231.2 885.5C257 885.7 283 893.3 308.8 893.5C334.7 893.7 360.3 886.3 386 884.7C411.7 883 437.3 887 463 886.5C488.7 886 514.3 881 527.2 878.5L540 876L540 961L527.2 961C514.3 961 488.7 961 463 961C437.3 961 411.7 961 386 961C360.3 961 334.7 961 308.8 961C283 961 257 961 231.2 961C205.3 961 179.7 961 154 961C128.3 961 102.7 961 77 961C51.3 961 25.7 961 12.8 961L0 961Z" fill="#0f1e37"></path><path d="M0 919L12.8 917.8C25.7 916.7 51.3 914.3 77 911.8C102.7 909.3 128.3 906.7 154 905.8C179.7 905 205.3 906 231.2 906.7C257 907.3 283 907.7 308.8 909.7C334.7 911.7 360.3 915.3 386 915.2C411.7 915 437.3 911 463 909.3C488.7 907.7 514.3 908.3 527.2 908.7L540 909L540 961L527.2 961C514.3 961 488.7 961 463 961C437.3 961 411.7 961 386 961C360.3 961 334.7 961 308.8 961C283 961 257 961 231.2 961C205.3 961 179.7 961 154 961C128.3 961 102.7 961 77 961C51.3 961 25.7 961 12.8 961L0 961Z" fill="#12264a"></path><path d="M0 934L12.8 935C25.7 936 51.3 938 77 937C102.7 936 128.3 932 154 929.7C179.7 927.3 205.3 926.7 231.2 928.3C257 930 283 934 308.8 935.8C334.7 937.7 360.3 937.3 386 936.5C411.7 935.7 437.3 934.3 463 933.8C488.7 933.3 514.3 933.7 527.2 933.8L540 934L540 961L527.2 961C514.3 961 488.7 961 463 961C437.3 961 411.7 961 386 961C360.3 961 334.7 961 308.8 961C283 961 257 961 231.2 961C205.3 961 179.7 961 154 961C128.3 961 102.7 961 77 961C51.3 961 25.7 961 12.8 961L0 961Z" fill="#2e4777"></path></svg>